<svg xmlns:dc="http://purl.org/dc/elements/1.1/" xmlns:cc="http://creativecommons.org/ns#" xmlns:rdf="http://www.w3.org/1999/02/22-rdf-syntax-ns#" xmlns:svg="http://www.w3.org/2000/svg" xmlns="http://www.w3.org/2000/svg" xmlns:xlink="http://www.w3.org/1999/xlink" id="svg678775" viewBox="0 0 1024 768" height="768px" width="1024px" version="1.1">
  <defs id="defs678779"></defs>
  <linearGradient spreadMethod="pad" y2="30%" x2="-10%" y1="120%" x1="30%" id="3d_gradient2-logo-2ae6e2be-6c20-4378-99e1-95efe0c75b8a">
    <stop id="stop678756" stop-opacity="1" stop-color="#ffffff" offset="0%"></stop>
    <stop id="stop678758" stop-opacity="1" stop-color="#000000" offset="100%"></stop>
  </linearGradient>
  <linearGradient gradientTransform="rotate(-30)" spreadMethod="pad" y2="30%" x2="-10%" y1="120%" x1="30%" id="3d_gradient3-logo-2ae6e2be-6c20-4378-99e1-95efe0c75b8a">
    <stop id="stop678761" stop-opacity="1" stop-color="#ffffff" offset="0%"></stop>
    <stop id="stop678763" stop-opacity="1" stop-color="#cccccc" offset="50%"></stop>
    <stop id="stop678765" stop-opacity="1" stop-color="#000000" offset="100%"></stop>
  </linearGradient>
  <g id="logo-group">
    <g id="logo-center" transform="translate(0 0)">
      <image xlink:href="" id="icon_container" style="display: none;" x="0" y="0"></image>
      <g id="slogan" style="font-style:oblique;font-weight:700;font-size:32px;line-height:1;font-family:Lato;font-variant-ligatures:none;text-align:center;text-anchor:middle" transform="translate(0 0)"></g>
      <g id="title" style="font-style:normal;font-weight:300;font-size:72px;line-height:1;font-family:'Uni Neue';font-variant-ligatures:none;text-align:center;text-anchor:middle" transform="translate(0 0)">
        <path id="path678784" style="font-style:normal;font-weight:300;font-size:72px;line-height:1;font-family:'Uni Neue';font-variant-ligatures:none;text-align:center;text-anchor:middle" d="m 425.312,-12.888 c 0,-7.704 -4.896,-11.52 -17.64,-14.544 -10.008,-2.376 -15.12,-5.616 -15.12,-12.168 0,-7.128 6.624,-10.368 14.184,-10.368 6.048,0.072 11.304,1.8 15.768,5.4 0.216,0.144 0.432,0.144 0.648,-0.144 l 0.72,-1.152 c 0.144,-0.144 0.216,-0.432 -0.072,-0.576 -4.824,-3.816 -10.008,-5.76 -16.776,-5.76 -9.144,0 -16.92,3.888 -16.92,12.456 0,7.848 6.048,12.096 17.064,14.616 11.592,2.664 15.696,5.688 15.696,12.24 0,7.56 -6.264,11.304 -15.192,11.304 -6.336,0 -11.088,-2.016 -16.272,-6.336 -0.216,-0.144 -0.432,-0.072 -0.648,0.144 l -0.864,1.08 c -0.144,0.216 -0.144,0.432 0.072,0.648 5.544,4.68 10.512,6.768 17.712,6.768 10.512,0 17.64,-4.824 17.64,-13.608 z" stroke-width="0" stroke-linejoin="miter" stroke-miterlimit="2" fill="#ac82a4" stroke="#ac82a4" transform="translate(0 324.7858) translate(246.38995690000002 15.025999999999996) scale(1.67) translate(-389.78764 52.2)"></path>
        <path id="path678786" style="font-style:normal;font-weight:300;font-size:72px;line-height:1;font-family:'Uni Neue';font-variant-ligatures:none;text-align:center;text-anchor:middle" d="m 436.166,-51.48 c -0.288,0 -0.432,0.144 -0.432,0.432 v 50.616 c 0,0.288 0.144,0.432 0.432,0.432 h 1.512 c 0.288,0 0.432,-0.144 0.432,-0.432 v -19.584 h 14.04 c 11.232,0 17.568,-5.76 17.568,-15.696 0,-9.792 -6.264,-15.768 -17.568,-15.768 z m 1.944,29.16 v -26.928 h 13.824 c 10.152,0 15.408,4.896 15.408,13.536 0,8.64 -5.256,13.392 -15.408,13.392 z" stroke-width="0" stroke-linejoin="miter" stroke-miterlimit="2" fill="#a27e9a" stroke="#a27e9a" transform="translate(0 324.7858) translate(348.17037809999994 16.228400000000008) scale(1.67) translate(-435.734 51.48)"></path>
        <path id="path678788" style="font-style:normal;font-weight:300;font-size:72px;line-height:1;font-family:'Uni Neue';font-variant-ligatures:none;text-align:center;text-anchor:middle" d="m 482.19763,-25.128 h 24.62399 c 0.288,0 0.504,-0.144 0.504,-0.432 v -1.368 c 0,-0.288 -0.216,-0.432 -0.504,-0.432 h -24.62399 v -21.888 h 26.13599 c 0.288,0 0.432,-0.144 0.432,-0.432 v -1.368 c 0,-0.288 -0.144,-0.432 -0.432,-0.432 h -28.08 c -0.288,0 -0.504,0.144 -0.504,0.432 v 50.616 c 0,0.288 0.216,0.432 0.504,0.432 h 29.16001 c 0.28799,0 0.43199,-0.144 0.43199,-0.432 V -1.8 c 0,-0.288 -0.144,-0.432 -0.43199,-0.432 h -27.216 z" stroke-width="0" stroke-linejoin="miter" stroke-miterlimit="2" fill="#987a90" stroke="#987a90" transform="translate(0 324.7858) translate(446.7264635 16.228400000000008) scale(1.67) translate(-479.74962 51.48)"></path>
        <path id="path678790" style="font-style:normal;font-weight:300;font-size:72px;line-height:1;font-family:'Uni Neue';font-variant-ligatures:none;text-align:center;text-anchor:middle" d="m 551.3705,-5.184 c 0.288,-0.216 0.288,-0.432 0.144,-0.648 l -0.864,-1.152 c -0.144,-0.216 -0.36,-0.288 -0.576,-0.072 -4.248,3.672 -9.432,5.544 -14.904,5.544 -9.936,0 -14.976,-6.264 -14.976,-14.832 v -18.792 c 0,-8.568 4.968,-14.832 14.832,-14.832 5.04,0 9.936,1.728 13.896,4.896 0.288,0.216 0.504,0.144 0.648,-0.072 l 0.792,-1.152 c 0.216,-0.144 0.216,-0.432 -0.072,-0.576 -4.464,-3.6 -9.792,-5.328 -15.192,-5.328 -10.944,0 -17.28,6.984 -17.28,17.064 v 18.792 c 0,10.08 6.264,17.064 17.424,17.064 5.76,0 11.52,-1.8 16.128,-5.904 z" stroke-width="0" stroke-linejoin="miter" stroke-miterlimit="2" fill="#8d7685" stroke="#8d7685" transform="translate(0 324.7858) translate(535.3514931 15.025999999999996) scale(1.67) translate(-517.8185 52.2)"></path>
        <path id="path678792" style="font-style:normal;font-weight:300;font-size:72px;line-height:1;font-family:'Uni Neue';font-variant-ligatures:none;text-align:center;text-anchor:middle" d="m 555.20225,-51.48 c -0.288,0 -0.432,0.144 -0.432,0.432 v 1.368 c 0,0.288 0.144,0.432 0.432,0.432 h 16.56 v 48.816 c 0,0.288 0.216,0.432 0.504,0.432 h 1.512 c 0.216,0 0.432,-0.144 0.432,-0.432 v -48.816 h 16.776 c 0.288,0 0.504,-0.144 0.504,-0.432 v -1.368 c 0,-0.288 -0.216,-0.432 -0.504,-0.432 z" stroke-width="0" stroke-linejoin="miter" stroke-miterlimit="2" fill="#83727b" stroke="#83727b" transform="translate(0 324.7858) translate(622.1109156000002 16.228400000000008) scale(1.67) translate(-554.77025 51.48)"></path>
        <path id="path678794" style="font-style:normal;font-weight:300;font-size:72px;line-height:1;font-family:'Uni Neue';font-variant-ligatures:none;text-align:center;text-anchor:middle" d="m 632.8835,-16.128 v -18.648 c 0,-10.368 -7.416,-17.424 -18.72,-17.424 -11.376,0 -18.792,7.056 -18.792,17.424 v 18.648 c 0,9.72 7.488,16.848 18.792,16.848 11.232,0 18.72,-7.128 18.72,-16.848 z m -35.136,0 v -18.648 c 0,-9.072 6.336,-15.192 16.416,-15.192 10.008,0 16.344,6.12 16.344,15.192 v 18.648 c 0,8.424 -6.408,14.544 -16.344,14.544 -10.008,0 -16.416,-6.12 -16.416,-14.544 z" stroke-width="0" stroke-linejoin="miter" stroke-miterlimit="2" fill="#796e71" stroke="#796e71" transform="translate(0 324.7858) translate(714.9650031000001 15.025999999999996) scale(1.67) translate(-595.3715 52.2)"></path>
      </g>
    </g>
  </g>
</svg>
